<svg width="27" height="20" viewBox="0 0 27 20" fill="none" xmlns="http://www.w3.org/2000/svg">
<mask id="path-1-inside-1_1918_1593" fill="white">
<path d="M15.8205 9.13397C16.4872 9.51888 16.4872 10.4811 15.8205 10.866L10.1328 14.1498C9.07261 14.7619 8.05215 13.2983 8.99312 12.5152L11.0916 10.7686C11.572 10.3688 11.572 9.6312 11.0916 9.23138L8.99312 7.48485C8.05215 6.70169 9.07261 5.23808 10.1328 5.8502L15.8205 9.13397Z"/>
</mask>
<path d="M15.8205 9.13397C16.4872 9.51888 16.4872 10.4811 15.8205 10.866L10.1328 14.1498C9.07261 14.7619 8.05215 13.2983 8.99312 12.5152L11.0916 10.7686C11.572 10.3688 11.572 9.6312 11.0916 9.23138L8.99312 7.48485C8.05215 6.70169 9.07261 5.23808 10.1328 5.8502L15.8205 9.13397Z" fill="url(#paint0_linear_1918_1593)"/>
<path d="M10.1328 5.8502L12.6328 1.52007L10.1328 5.8502ZM15.8205 10.866L18.3205 15.1962L15.8205 10.866ZM15.8205 9.13397L13.3205 13.4641L15.8205 9.13397ZM13.3205 6.5359L7.63283 9.81967L12.6328 18.4799L18.3205 15.1962L13.3205 6.5359ZM7.63283 10.1803L13.3205 13.4641L18.3205 4.80385L12.6328 1.52007L7.63283 10.1803ZM12.1917 16.3582L14.2902 14.6117L7.89307 6.92553L5.79458 8.67207L12.1917 16.3582ZM14.2902 5.38829L12.1917 3.64176L5.79458 11.3279L7.89307 13.0745L14.2902 5.38829ZM14.2902 14.6117C17.1725 12.2128 17.1725 7.78722 14.2902 5.38829L7.89307 13.0745C5.97151 11.4752 5.97152 8.5248 7.89307 6.92553L14.2902 14.6117ZM12.6328 1.52007C6.27127 -2.15277 0.148958 6.62917 5.79458 11.3279L12.1917 3.64176C15.9553 6.77421 11.8739 12.6289 7.63283 10.1803L12.6328 1.52007ZM7.63283 9.81967C11.8738 7.37114 15.9555 13.2257 12.1917 16.3582L5.79458 8.67207C0.148836 13.3709 6.27141 22.1527 12.6328 18.4799L7.63283 9.81967ZM18.3205 15.1962C22.3205 12.8868 22.3205 7.11325 18.3205 4.80385L13.3205 13.4641C10.6538 11.9245 10.6538 8.0755 13.3205 6.5359L18.3205 15.1962Z" fill="white" mask="url(#path-1-inside-1_1918_1593)"/>
<mask id="path-3-inside-2_1918_1593" fill="white">
<path d="M24.5588 9.13397C25.2254 9.51888 25.2254 10.4811 24.5588 10.866L18.8711 14.1498C17.8109 14.7619 16.7904 13.2983 17.7314 12.5152L19.8299 10.7686C20.3103 10.3688 20.3103 9.6312 19.8299 9.23138L17.7314 7.48485C16.7904 6.70169 17.8109 5.23808 18.8711 5.8502L24.5588 9.13397Z"/>
</mask>
<path d="M24.5588 9.13397C25.2254 9.51888 25.2254 10.4811 24.5588 10.866L18.8711 14.1498C17.8109 14.7619 16.7904 13.2983 17.7314 12.5152L19.8299 10.7686C20.3103 10.3688 20.3103 9.6312 19.8299 9.23138L17.7314 7.48485C16.7904 6.70169 17.8109 5.23808 18.8711 5.8502L24.5588 9.13397Z" fill="url(#paint1_linear_1918_1593)"/>
<path d="M18.8711 5.8502L21.3711 1.52007L18.8711 5.8502ZM24.5588 10.866L27.0588 15.1962L24.5588 10.866ZM24.5588 9.13397L22.0588 13.4641L24.5588 9.13397ZM22.0588 6.5359L16.3711 9.81967L21.3711 18.4799L27.0588 15.1962L22.0588 6.5359ZM16.3711 10.1803L22.0588 13.4641L27.0588 4.80385L21.3711 1.52007L16.3711 10.1803ZM20.9299 16.3582L23.0284 14.6117L16.6313 6.92553L14.5329 8.67207L20.9299 16.3582ZM23.0284 5.38829L20.9299 3.64176L14.5329 11.3279L16.6313 13.0745L23.0284 5.38829ZM23.0284 14.6117C25.9108 12.2128 25.9108 7.78722 23.0284 5.38829L16.6313 13.0745C14.7098 11.4752 14.7098 8.5248 16.6313 6.92553L23.0284 14.6117ZM21.3711 1.52007C15.0096 -2.15277 8.88724 6.62917 14.5329 11.3279L20.9299 3.64176C24.6936 6.77421 20.6122 12.6289 16.3711 10.1803L21.3711 1.52007ZM16.3711 9.81967C20.6121 7.37114 24.6937 13.2257 20.9299 16.3582L14.5329 8.67207C8.88712 13.3709 15.0097 22.1527 21.3711 18.4799L16.3711 9.81967ZM27.0588 15.1962C31.0588 12.8868 31.0588 7.11325 27.0588 4.80385L22.0588 13.4641C19.3921 11.9245 19.3921 8.0755 22.0588 6.5359L27.0588 15.1962Z" fill="white" mask="url(#path-3-inside-2_1918_1593)"/>
<defs>
<linearGradient id="paint0_linear_1918_1593" x1="-3.21932e-05" y1="20" x2="1.32754" y2="-26.3842" gradientUnits="userSpaceOnUse">
<stop stop-color="#C32805"/>
<stop offset="1" stop-color="#E5B539"/>
</linearGradient>
<linearGradient id="paint1_linear_1918_1593" x1="8.73825" y1="20" x2="10.0658" y2="-26.3842" gradientUnits="userSpaceOnUse">
<stop stop-color="#C32805"/>
<stop offset="1" stop-color="#E5B539"/>
</linearGradient>
</defs>
</svg>
