<svg width="18" height="18" viewBox="0 0 18 18" fill="none" xmlns="http://www.w3.org/2000/svg">
<g clip-path="url(#clip0_163_2463)">
<path fill-rule="evenodd" clip-rule="evenodd" d="M8.99999 2.44018C8.36208 2.44024 7.74073 2.64333 7.22593 3.02004C6.71113 3.39676 6.32961 3.92756 6.13658 4.53557L5.46064 6.66475H12.5393L11.8634 4.53557C11.6703 3.92756 11.2889 3.39676 10.7741 3.02004C10.2593 2.64333 9.6379 2.44024 8.99999 2.44018ZM14.312 6.66475L13.4738 4.02439C13.1724 3.07427 12.5764 2.24476 11.772 1.65605C10.9676 1.06734 9.99674 0.75 8.99999 0.75C8.00325 0.75 7.03231 1.06734 6.22795 1.65605C5.42359 2.24476 4.82755 3.07427 4.52617 4.02439L3.68801 6.66475H1.68979C1.42596 6.66476 1.1658 6.72654 0.930149 6.84515C0.694485 6.96375 0.489872 7.13589 0.332684 7.34777C0.175496 7.55969 0.0701011 7.80539 0.0249404 8.06537C-0.0202204 8.32526 -0.00388817 8.59217 0.0726189 8.84463L1.0223 11.9793L2.19505 15.849C2.35278 16.3695 2.67377 16.8255 3.11059 17.1496C3.54741 17.4737 4.07689 17.6487 4.6208 17.6487H13.3792C13.923 17.6485 14.4522 17.4734 14.8889 17.1493C15.3255 16.8253 15.6464 16.3694 15.8041 15.849L16.9777 11.9793L17.9274 8.84463C18.0039 8.59217 18.0202 8.32526 17.975 8.06537C17.9299 7.80539 17.8245 7.55969 17.6673 7.34777C17.5101 7.13589 17.3055 6.96375 17.0699 6.84515C16.8342 6.72654 16.574 6.66476 16.3102 6.66475H14.312ZM4.30564 8.35458H1.68979L2.45781 10.8893H5.65159L5.30518 8.35458H4.30564ZM7.01106 8.35458L7.35663 10.8893H10.6434L10.9898 8.35458H7.01106ZM12.6948 8.35458L12.3484 10.8893H15.5422L16.3102 8.35458H12.6948ZM15.0302 12.5792H12.1177L11.6573 15.9588H13.3783C13.5597 15.9588 13.7362 15.9005 13.8817 15.7925C14.0273 15.6845 14.1344 15.5325 14.1869 15.3589L15.0302 12.5792ZM9.95221 15.9588L10.4127 12.5792H7.58645L8.04777 15.9588H9.95221ZM6.34189 15.9588L5.88141 12.5792H2.96983L3.81221 15.3589C3.86479 15.5325 3.97178 15.6845 4.1174 15.7925C4.263 15.9005 4.4395 15.9588 4.6208 15.9588H6.34189Z" fill="#F3EFE0"/>
</g>
<defs>
<clipPath id="clip0_163_2463">
<rect width="18" height="18" fill="white"/>
</clipPath>
</defs>
</svg>
