<svg width="24" height="24" viewBox="0 0 24 24" fill="none" xmlns="http://www.w3.org/2000/svg">
<path d="M20.3225 9.38742C20.2772 9.61394 20.3481 9.84811 20.5115 10.0115V10.0115C20.7813 10.2813 20.7813 10.7187 20.5115 10.9885L19.937 11.563C19.6692 11.8308 19.5757 12.227 19.6954 12.5863L20.916 16.2481C20.9711 16.4132 20.982 16.5898 20.9479 16.7604L20.4722 19.1392C20.3542 19.729 19.746 20.082 19.1753 19.8918L16.214 18.9047C15.9212 18.8071 15.5998 18.8501 15.3431 19.0213L13.7519 20.0821C13.5877 20.1916 13.3946 20.25 13.1972 20.25H10.8028C10.6054 20.25 10.4123 20.1916 10.2481 20.0821L8.65694 19.0213C8.40018 18.8501 8.07877 18.8071 7.78601 18.9047L4.82465 19.8918C4.25402 20.082 3.64581 19.729 3.52784 19.1392L3.05208 16.7604C3.01795 16.5898 3.02895 16.4132 3.08398 16.2481L4.30456 12.5863C4.42434 12.227 4.33082 11.8308 4.06298 11.563L3.48854 10.9885C3.21873 10.7187 3.21873 10.2813 3.48854 10.0115V10.0115C3.65189 9.84811 3.72279 9.61394 3.67748 9.38742L3.0441 6.2205C3.01506 6.07531 3.01863 5.92549 3.05454 5.78185L3.42984 4.28063C3.59056 3.63776 4.32077 3.32616 4.89612 3.65493L8.76943 5.86824C8.92052 5.95458 9.09154 6 9.26556 6H14.7344C14.9085 6 15.0795 5.95458 15.2306 5.86824L19.1039 3.65493C19.6792 3.32616 20.4094 3.63776 20.5702 4.28063L20.9455 5.78185C20.9814 5.92549 20.9849 6.07531 20.9559 6.2205L20.3225 9.38742Z" stroke="#F3EFE0" stroke-width="1.5"/>
<path d="M15 6L14.25 9L13.6095 14.124C13.5469 14.6245 13.1215 15 12.6172 15H11.3828C10.8785 15 10.4531 14.6245 10.3905 14.124L9.75 9L9 6" stroke="#F3EFE0" stroke-width="1.5"/>
<path d="M10.5 15L8.25 18.75" stroke="#F3EFE0" stroke-width="1.5"/>
<path d="M13.5 15L15.75 18.75" stroke="#F3EFE0" stroke-width="1.5"/>
<path d="M12 18V20.25" stroke="#F3EFE0" stroke-width="1.5" stroke-linecap="round"/>
<path d="M4.5 12L9.75 9" stroke="#F3EFE0" stroke-width="1.5"/>
<path d="M14.25 9L19.5 12" stroke="#F3EFE0" stroke-width="1.5"/>
<path d="M10.5 15L7.5 14" stroke="#F3EFE0" stroke-width="1.5" stroke-linecap="round"/>
<path d="M13.5 15L16.5 14" stroke="#F3EFE0" stroke-width="1.5" stroke-linecap="round"/>
</svg>
