<svg width="24" height="24" viewBox="0 0 24 24" fill="none" xmlns="http://www.w3.org/2000/svg">
<path d="M22 12C22 6.47715 17.5228 2 12 2C6.47715 2 2 6.47715 2 12C2 17.5228 6.47715 22 12 22C17.5228 22 22 17.5228 22 12Z" fill="#0052FF"/>
<path d="M12.0029 15.5156C10.0606 15.5156 8.4873 13.9424 8.4873 12C8.4873 10.0576 10.0606 8.48438 12.0029 8.48438C13.7432 8.48438 15.1875 9.75293 15.4658 11.4141H19.0078C18.709 7.80469 15.6885 4.96875 12.0029 4.96875C8.12109 4.96875 4.97168 8.11816 4.97168 12C4.97168 15.8818 8.12109 19.0312 12.0029 19.0312C15.6885 19.0312 18.709 16.1953 19.0078 12.5859H15.4629C15.1846 14.2471 13.7432 15.5156 12.0029 15.5156Z" fill="#F3EFE0"/>
</svg>
