<svg width="27" height="24" viewBox="0 0 27 24" fill="none" xmlns="http://www.w3.org/2000/svg">
<path d="M1 10H23" stroke="#F3EFE0" stroke-width="2" stroke-linecap="round" stroke-linejoin="round"/>
<path d="M22.5 19.4545C23.0272 19.4545 23.4545 19.0272 23.4545 18.5C23.4545 17.9728 23.0272 17.5455 22.5 17.5455C21.9728 17.5455 21.5455 17.9728 21.5455 18.5C21.5455 19.0272 21.9728 19.4545 22.5 19.4545Z" stroke="#F3EFE0" stroke-linecap="round" stroke-linejoin="round"/>
<path d="M24.8545 19.4545C24.8122 19.5505 24.7996 19.657 24.8183 19.7602C24.837 19.8634 24.8862 19.9586 24.9595 20.0336L24.9786 20.0527C25.0378 20.1118 25.0847 20.182 25.1168 20.2593C25.1488 20.3365 25.1653 20.4193 25.1653 20.503C25.1653 20.5866 25.1488 20.6694 25.1168 20.7466C25.0847 20.8239 25.0378 20.8941 24.9786 20.9532C24.9195 21.0123 24.8494 21.0593 24.7721 21.0913C24.6948 21.1233 24.612 21.1398 24.5284 21.1398C24.4448 21.1398 24.362 21.1233 24.2847 21.0913C24.2075 21.0593 24.1373 21.0123 24.0782 20.9532L24.0591 20.9341C23.9841 20.8607 23.8889 20.8115 23.7856 20.7928C23.6824 20.7741 23.576 20.7867 23.48 20.8291C23.3859 20.8694 23.3056 20.9364 23.2491 21.0218C23.1926 21.1071 23.1622 21.2072 23.1618 21.3095V21.3636C23.1618 21.5324 23.0948 21.6943 22.9754 21.8136C22.8561 21.933 22.6942 22 22.5255 22C22.3567 22 22.1948 21.933 22.0755 21.8136C21.9561 21.6943 21.8891 21.5324 21.8891 21.3636V21.335C21.8866 21.2297 21.8525 21.1275 21.7913 21.0419C21.73 20.9562 21.6443 20.8909 21.5455 20.8545C21.4495 20.8122 21.343 20.7996 21.2398 20.8183C21.1366 20.837 21.0414 20.8862 20.9664 20.9595L20.9473 20.9786C20.8882 21.0378 20.818 21.0847 20.7407 21.1168C20.6635 21.1488 20.5807 21.1653 20.497 21.1653C20.4134 21.1653 20.3306 21.1488 20.2534 21.1168C20.1761 21.0847 20.1059 21.0378 20.0468 20.9786C19.9877 20.9195 19.9407 20.8494 19.9087 20.7721C19.8767 20.6948 19.8602 20.612 19.8602 20.5284C19.8602 20.4448 19.8767 20.362 19.9087 20.2847C19.9407 20.2075 19.9877 20.1373 20.0468 20.0782L20.0659 20.0591C20.1393 19.9841 20.1885 19.8889 20.2072 19.7856C20.2259 19.6824 20.2133 19.576 20.1709 19.48C20.1306 19.3859 20.0636 19.3056 19.9782 19.2491C19.8929 19.1926 19.7928 19.1622 19.6905 19.1618H19.6364C19.4676 19.1618 19.3057 19.0948 19.1864 18.9754C19.067 18.8561 19 18.6942 19 18.5255C19 18.3567 19.067 18.1948 19.1864 18.0755C19.3057 17.9561 19.4676 17.8891 19.6364 17.8891H19.665C19.7703 17.8866 19.8725 17.8525 19.9581 17.7913C20.0438 17.73 20.1091 17.6443 20.1455 17.5455C20.1878 17.4495 20.2004 17.343 20.1817 17.2398C20.163 17.1366 20.1138 17.0414 20.0405 16.9664L20.0214 16.9473C19.9622 16.8882 19.9153 16.818 19.8832 16.7407C19.8512 16.6635 19.8347 16.5807 19.8347 16.497C19.8347 16.4134 19.8512 16.3306 19.8832 16.2534C19.9153 16.1761 19.9622 16.1059 20.0214 16.0468C20.0805 15.9877 20.1506 15.9407 20.2279 15.9087C20.3052 15.8767 20.388 15.8602 20.4716 15.8602C20.5552 15.8602 20.638 15.8767 20.7153 15.9087C20.7925 15.9407 20.8627 15.9877 20.9218 16.0468L20.9409 16.0659C21.0159 16.1393 21.1111 16.1885 21.2144 16.2072C21.3176 16.2259 21.424 16.2133 21.52 16.1709H21.5455C21.6396 16.1306 21.7198 16.0636 21.7764 15.9782C21.8329 15.8929 21.8632 15.7928 21.8636 15.6905V15.6364C21.8636 15.4676 21.9307 15.3057 22.05 15.1864C22.1694 15.067 22.3312 15 22.5 15C22.6688 15 22.8306 15.067 22.95 15.1864C23.0693 15.3057 23.1364 15.4676 23.1364 15.6364V15.665C23.1368 15.7674 23.1671 15.8674 23.2236 15.9528C23.2802 16.0381 23.3604 16.1051 23.4545 16.1455C23.5505 16.1878 23.657 16.2004 23.7602 16.1817C23.8634 16.163 23.9586 16.1138 24.0336 16.0405L24.0527 16.0214C24.1118 15.9622 24.182 15.9153 24.2593 15.8832C24.3365 15.8512 24.4193 15.8347 24.503 15.8347C24.5866 15.8347 24.6694 15.8512 24.7466 15.8832C24.8239 15.9153 24.8941 15.9622 24.9532 16.0214C25.0123 16.0805 25.0593 16.1506 25.0913 16.2279C25.1233 16.3052 25.1398 16.388 25.1398 16.4716C25.1398 16.5552 25.1233 16.638 25.0913 16.7153C25.0593 16.7925 25.0123 16.8627 24.9532 16.9218L24.9341 16.9409C24.8607 17.0159 24.8115 17.1111 24.7928 17.2144C24.7741 17.3176 24.7867 17.424 24.8291 17.52V17.5455C24.8694 17.6396 24.9364 17.7198 25.0218 17.7764C25.1071 17.8329 25.2072 17.8632 25.3095 17.8636H25.3636C25.5324 17.8636 25.6943 17.9307 25.8136 18.05C25.933 18.1694 26 18.3312 26 18.5C26 18.6688 25.933 18.8306 25.8136 18.95C25.6943 19.0693 25.5324 19.1364 25.3636 19.1364H25.335C25.2326 19.1368 25.1326 19.1671 25.0472 19.2236C24.9619 19.2802 24.8949 19.3604 24.8545 19.4545Z" stroke="#F3EFE0" stroke-linecap="round" stroke-linejoin="round"/>
<path d="M24 12.6538V6C24 4.89543 23.1046 4 22 4H3C1.89543 4 1 4.89543 1 6V17C1 18.1046 1.89543 19 3 19H16.5" stroke="#F3EFE0" stroke-width="2" stroke-linecap="round"/>
</svg>
