<svg width="49" height="49" viewBox="0 0 49 49" fill="none" xmlns="http://www.w3.org/2000/svg">
<path d="M42 24.5C42 34.165 34.165 42 24.5 42C14.835 42 7 34.165 7 24.5C7 14.835 14.835 7 24.5 7C34.165 7 42 14.835 42 24.5Z" fill="#F3EFE0"/>
<path fill-rule="evenodd" clip-rule="evenodd" d="M24.5 4C13.1782 4 4 13.1782 4 24.5C4 35.8218 13.1782 45 24.5 45C35.8218 45 45 35.8218 45 24.5C45 13.1782 35.8218 4 24.5 4ZM0 24.5C0 10.969 10.969 0 24.5 0C38.031 0 49 10.969 49 24.5C49 38.031 38.031 49 24.5 49C10.969 49 0 38.031 0 24.5Z" fill="#F3EFE0"/>
</svg>
