<svg width="25" height="24" viewBox="0 0 25 24" fill="none" xmlns="http://www.w3.org/2000/svg">
<path d="M21.5036 2.61084L13.6997 8.43117L15.1428 4.99725L21.5036 2.61084Z" fill="#E2761B"/>
<path d="M3.48808 2.61084L11.2293 8.4863L9.85671 4.99725L3.48808 2.61084ZM18.6959 16.1024L16.6175 19.3L21.0646 20.5286L22.343 16.1732L18.6959 16.1024ZM2.66455 16.1732L3.93514 20.5286L8.3822 19.3L6.30377 16.1024L2.66455 16.1732Z" fill="#E4761B"/>
<path d="M8.13106 10.6993L6.89185 12.5817L11.3075 12.7786L11.1507 8.01363L8.13106 10.6993ZM16.8605 10.6993L13.8016 7.9585L13.6997 12.7786L18.1075 12.5817L16.8605 10.6993ZM8.38204 19.2999L11.033 18.0003L8.74283 16.2046L8.38204 19.2999ZM13.9585 18.0003L16.6173 19.2999L16.2487 16.2046L13.9585 18.0003Z" fill="#E4761B"/>
<path d="M16.6174 19.3L13.9585 18.0005L14.1703 19.7411L14.1468 20.4735L16.6174 19.3ZM8.38208 19.3L10.8527 20.4735L10.837 19.7411L11.0331 18.0005L8.38208 19.3Z" fill="#D7C1B3"/>
<path d="M10.8919 15.0547L8.68018 14.401L10.241 13.6843L10.8919 15.0547ZM14.0998 15.0547L14.7508 13.6843L16.3194 14.401L14.0998 15.0547Z" fill="#233447"/>
<path d="M8.38214 19.3L8.75861 16.1023L6.30371 16.1732L8.38214 19.3ZM16.241 16.1023L16.6174 19.3L18.6959 16.1732L16.241 16.1023ZM18.1076 12.5818L13.6998 12.7787L14.1076 15.0548L14.7586 13.6844L16.3272 14.4011L18.1076 12.5818ZM8.68018 14.4011L10.2488 13.6844L10.8919 15.0548L11.3076 12.7787L6.89195 12.5818L8.68018 14.4011Z" fill="#CD6116"/>
<path d="M6.89185 12.5818L8.74283 16.2047L8.68008 14.4011L6.89185 12.5818ZM16.3271 14.4011L16.2487 16.2047L18.1075 12.5818L16.3271 14.4011ZM11.3075 12.7787L10.8918 15.0548L11.4095 17.7405L11.5271 14.2042L11.3075 12.7787ZM13.6997 12.7787L13.4879 14.1964L13.582 17.7405L14.1075 15.0548L13.6997 12.7787Z" fill="#E4751F"/>
<path d="M14.1076 15.0548L13.5821 17.7405L13.9586 18.0004L16.2488 16.2047L16.3272 14.4011L14.1076 15.0548ZM8.68018 14.4011L8.74292 16.2047L11.0331 18.0004L11.4096 17.7405L10.8919 15.0548L8.68018 14.4011Z" fill="#F6851B"/>
<path d="M14.1468 20.4736L14.1703 19.7411L13.9742 19.5678H11.0174L10.837 19.7411L10.8527 20.4736L8.38208 19.3L9.24483 20.0089L10.9938 21.2297H13.9978L15.7546 20.0089L16.6174 19.3L14.1468 20.4736Z" fill="#C0AD9E"/>
<path d="M13.9585 18.0004L13.582 17.7405H11.4095L11.033 18.0004L10.8369 19.741L11.0173 19.5677H13.9742L14.1702 19.741L13.9585 18.0004Z" fill="#161616"/>
<path d="M21.8331 8.80922L22.4998 5.59583L21.5037 2.61084L13.9586 8.23427L16.8605 10.6994L20.9625 11.9045L21.8723 10.8412L21.4801 10.5577L22.1076 9.98273L21.6213 9.60469L22.2488 9.12425L21.8331 8.80922ZM2.49976 5.59583L3.16642 8.80922L2.74289 9.12425L3.37034 9.60469L2.89191 9.98273L3.51936 10.5577L3.12721 10.8412L4.02917 11.9045L8.13113 10.6994L11.0331 8.23427L3.48799 2.61084L2.49976 5.59583Z" fill="#763D16"/>
<path d="M20.9626 11.9045L16.8606 10.6995L18.1077 12.5819L16.2489 16.2048L18.6959 16.1733H22.343L20.9626 11.9045ZM8.13122 10.6995L4.02926 11.9045L2.66455 16.1733H6.30377L8.74298 16.2048L6.892 12.5819L8.13122 10.6995ZM13.6998 12.7788L13.9587 8.23433L15.1508 4.99731H9.85671L11.0332 8.23433L11.3077 12.7788L11.4018 14.2122L11.4096 17.7406H13.5822L13.5979 14.2122L13.6998 12.7788Z" fill="#F6851B"/>
</svg>
