<svg width="18" height="19" viewBox="0 0 18 19" fill="none" xmlns="http://www.w3.org/2000/svg">
<path d="M6.5115 15.1796L6.51164 15.1797C6.74449 15.4038 6.97929 15.7084 7.20098 16.0088C7.27311 16.1065 7.34417 16.2042 7.41491 16.3014C7.57152 16.5168 7.72653 16.7299 7.88803 16.9362C8.12138 17.2342 8.34161 17.4825 8.54952 17.6533C8.76323 17.8288 8.90651 17.875 8.99245 17.875C9.07883 17.875 9.22327 17.8284 9.43858 17.6525C9.64786 17.4814 9.86972 17.2329 10.1043 16.935C10.2707 16.7238 10.4307 16.5045 10.592 16.2835C10.6588 16.1919 10.7259 16.1001 10.7936 16.0085C11.0154 15.7086 11.2492 15.4047 11.4791 15.1814L11.4809 15.1796C13.5985 13.1434 15.7932 10.0463 14.9773 6.44806C14.2536 3.26417 11.4809 1.8125 8.99995 1.8125H8.99994H8.99994H8.99994H8.99993H8.99993H8.99992H8.99992H8.99992H8.99991H8.99991H8.9999H8.9999H8.99989H8.99989H8.99988H8.99988H8.99988H8.99987H8.99987H8.99986H8.99986H8.99986H8.99985H8.99985H8.99984H8.99984H8.99983H8.99982H8.99982H8.99981H8.99981H8.9998H8.99979H8.99979H8.99978H8.99977H8.99977H8.99976H8.99976H8.99975H8.99975H8.99975H8.99974H8.99974H8.99973H8.99973H8.99972H8.99972H8.99972H8.99971H8.99971H8.9997H8.9997H8.99969H8.99969H8.99968H8.99968H8.99967H8.99967H8.99967H8.99966H8.99966H8.99965H8.99964H8.99964H8.99963H8.99963H8.99962H8.99962H8.99961H8.99961H8.9996H8.9996H8.99959H8.99958H8.99958H8.99957H8.99957H8.99956H8.99955H8.99955H8.99954H8.99954H8.99953H8.99952H8.99952H8.99951H8.9995H8.9995H8.99949H8.99948H8.99948H8.99947H8.99946H8.99945H8.99945H8.99944H8.99943H8.99942H8.99942H8.99941H8.9994H8.99939H8.99939H8.99938H8.99937H8.99936H8.99935H8.99935H8.99934H8.99933H8.99932H8.99931H8.9993H8.9993H8.99929H8.99928H8.99927H8.99926H8.99925H8.99924H8.99923H8.99922H8.99922H8.99921H8.9992H8.99919H8.99918H8.99917H8.99916H8.99915H8.99914H8.99913H8.99912H8.99911H8.9991H8.99909H8.99908H8.99907H8.99906H8.99904H8.99903H8.99902H8.99901H8.999H8.99899H8.99898H8.99897H8.99896H8.99894H8.99893H8.99892H8.99891H8.9989H8.99889H8.99887H8.99886H8.99885H8.99884H8.99883H8.99881H8.9988H8.99879H8.99877H8.99876H8.99875H8.99874H8.99872H8.99871H8.9987H8.99868H8.99867H8.99866H8.99864H8.99863H8.99861H8.9986H8.99859H8.99857H8.99856H8.99854H8.99853H8.99851H8.9985H8.99849H8.99847H8.99846H8.99844H8.99843H8.99841H8.99839H8.99838H8.99836H8.99835H8.99833H8.99832H8.9983H8.99828H8.99827H8.99825H8.99824H8.99822H8.9982H8.99819H8.99817H8.99815H8.99814H8.99812H8.9981H8.99808H8.99807H8.99805H8.99803H8.99801H8.998H8.99798H8.99796H8.99794H8.99792H8.9979H8.99789H8.99787H8.99785H8.99783H8.99781H8.99779H8.99777H8.99775H8.99773H8.99771H8.99769H8.99767H8.99765H8.99763H8.99761H8.99759H8.99757H8.99755H8.99753H8.99751H8.99749H8.99747H8.99745H8.99743H8.99741H8.99739H8.99736H8.99734H8.99732H8.9973H8.99728H8.99725H8.99723H8.99721H8.99719H8.99716H8.99714H8.99712H8.9971H8.99707H8.99705H8.99703H8.997H8.99698H8.99696H8.99693H8.99691H8.99688H8.99686H8.99683H8.99681H8.99679H8.99676H8.99674H8.99671H8.99669H8.99666H8.99663H8.99661H8.99658H8.99656H8.99653H8.99651H8.99648H8.99645H8.99643H8.9964H8.99637H8.99635H8.99632H8.99629H8.99626H8.99624H8.99621H8.99618H8.99615H8.99613H8.9961H8.99607H8.99604H8.99601H8.99598H8.99596H8.99593H8.9959H8.99587H8.99584H8.99581H8.99578H8.99575H8.99572H8.99569H8.99566H8.99563H8.9956H8.99557H8.99554H8.99551H8.99548H8.99544H8.99541H8.99538H8.99535H8.99532H8.99529H8.99525H8.99522H8.99519H8.99516H8.99512H8.99509H8.99506H8.99503H8.99499H8.99496H8.99493H8.99489H8.99486H8.99482H8.99479H8.99475H8.99472H8.99469H8.99465H8.99462H8.99458H8.99455H8.99451H8.99447H8.99444H8.9944H8.99437H8.99433H8.99429H8.99426H8.99422H8.99418H8.99415H8.99411H8.99407H8.99404H8.994H8.99396H8.99392H8.99388H8.99385H8.99381H8.99377H8.99373H8.99369H8.99365H8.99361H8.99357H8.99354H8.99349H8.99346H8.99342H8.99338H8.99333H8.99329H8.99325H8.99321H8.99317H8.99313H8.99309H8.99305H8.99301H8.99296H8.99292H8.99288H8.99284H8.9928H8.99275H8.99271H8.99267H8.99262H8.99258H8.99254H8.99249H8.99245C6.5177 1.8125 3.73856 3.25777 3.01507 6.44057L6.5115 15.1796ZM6.5115 15.1796C4.39427 13.1438 2.19924 10.0392 3.01502 6.44081L6.5115 15.1796ZM6.13745 7.7325C6.13745 9.31364 7.41881 10.595 8.99995 10.595C10.5811 10.595 11.8624 9.31364 11.8624 7.7325C11.8624 6.15136 10.5811 4.87 8.99995 4.87C7.41881 4.87 6.13745 6.15136 6.13745 7.7325Z" fill="#3E95FA" stroke="#3E95FA"/>
</svg>
