<svg width="36px" height="38px" viewBox="0 0 36 38" xmlns="http://www.w3.org/2000/svg" fill="none">
 <g transform="scale(2 2)">
  <title>Layer 1</title>
  <path id="svg_1" stroke="#3E95FA" fill="#3E95FA" d="m6.5115,15.1796l0.00014,0.0001c0.23285,0.2241 0.46765,0.5287 0.68934,0.8291c0.07213,0.0977 0.14319,0.1954 0.21393,0.2926c0.15661,0.2154 0.31162,0.4285 0.47312,0.6348c0.23335,0.298 0.45358,0.5463 0.66149,0.7171c0.21371,0.1755 0.35699,0.2217 0.44293,0.2217c0.08638,0 0.23082,-0.0466 0.44613,-0.2225c0.20928,-0.1711 0.43114,-0.4196 0.66572,-0.7175c0.1664,-0.2112 0.3264,-0.4305 0.4877,-0.6515c0.0668,-0.0916 0.1339,-0.1834 0.2016,-0.275c0.2218,-0.2999 0.4556,-0.6038 0.6855,-0.8271l0.0018,-0.0018c2.1176,-2.0362 4.3123,-5.1333 3.4964,-8.73154c-0.7237,-3.18389 -3.4964,-4.63556 -5.97735,-4.63556l-0.00001,0l0,0l0,0l-0.00001,0l0,0l-0.00001,0l0,0l0,0l-0.00001,0l0,0l-0.00001,0l0,0l-0.00001,0l0,0l-0.00001,0l0,0l0,0l-0.00001,0l0,0l-0.00001,0l0,0l0,0l-0.00001,0l0,0l-0.00001,0l0,0l-0.00001,0l-0.00001,0l0,0l-0.00001,0l0,0l-0.00001,0l-0.00001,0l0,0l-0.00001,0l-0.00001,0l0,0l-0.00001,0l0,0l-0.00001,0l0,0l0,0l-0.00001,0l0,0l-0.00001,0l0,0l-0.00001,0l0,0l0,0l-0.00001,0l0,0l-0.00001,0l0,0l-0.00001,0l0,0l-0.00001,0l0,0l-0.00001,0l0,0l0,0l-0.00001,0l0,0l-0.00001,0l-0.00001,0l0,0l-0.00001,0l0,0l-0.00001,0l0,0l-0.00001,0l0,0l-0.00001,0l0,0l-0.00001,0l-0.00001,0l0,0l-0.00001,0l0,0l-0.00001,0l-0.00001,0l0,0l-0.00001,0l0,0l-0.00001,0l-0.00001,0l0,0l-0.00001,0l-0.00001,0l0,0l-0.00001,0l-0.00001,0l0,0l-0.00001,0l-0.00001,0l-0.00001,0l0,0l-0.00001,0l-0.00001,0l-0.00001,0l0,0l-0.00001,0l-0.00001,0l-0.00001,0l0,0l-0.00001,0l-0.00001,0l-0.00001,0l-0.00001,0l0,0l-0.00001,0l-0.00001,0l-0.00001,0l-0.00001,0l-0.00001,0l0,0l-0.00001,0l-0.00001,0l-0.00001,0l-0.00001,0l-0.00001,0l-0.00001,0l-0.00001,0l-0.00001,0l0,0l-0.00001,0l-0.00001,0l-0.00001,0l-0.00001,0l-0.00001,0l-0.00001,0l-0.00001,0l-0.00001,0l-0.00001,0l-0.00001,0l-0.00001,0l-0.00001,0l-0.00001,0l-0.00001,0l-0.00001,0l-0.00001,0l-0.00002,0l-0.00001,0l-0.00001,0l-0.00001,0l-0.00001,0l-0.00001,0l-0.00001,0l-0.00001,0l-0.00001,0l-0.00002,0l-0.00001,0l-0.00001,0l-0.00001,0l-0.00001,0l-0.00001,0l-0.00002,0l-0.00001,0l-0.00001,0l-0.00001,0l-0.00001,0l-0.00002,0l-0.00001,0l-0.00001,0l-0.00002,0l-0.00001,0l-0.00001,0l-0.00001,0l-0.00002,0l-0.00001,0l-0.00001,0l-0.00002,0l-0.00001,0l-0.00001,0l-0.00002,0l-0.00001,0l-0.00002,0l-0.00001,0l-0.00001,0l-0.00002,0l-0.00001,0l-0.00002,0l-0.00001,0l-0.00002,0l-0.00001,0l-0.00001,0l-0.00002,0l-0.00001,0l-0.00002,0l-0.00001,0l-0.00002,0l-0.00002,0l-0.00001,0l-0.00002,0l-0.00001,0l-0.00002,0l-0.00001,0l-0.00002,0l-0.00002,0l-0.00001,0l-0.00002,0l-0.00001,0l-0.00002,0l-0.00002,0l-0.00001,0l-0.00002,0l-0.00002,0l-0.00001,0l-0.00002,0l-0.00002,0l-0.00002,0l-0.00001,0l-0.00002,0l-0.00002,0l-0.00002,0l-0.00001,0l-0.00002,0l-0.00002,0l-0.00002,0l-0.00002,0l-0.00002,0l-0.00001,0l-0.00002,0l-0.00002,0l-0.00002,0l-0.00002,0l-0.00002,0l-0.00002,0l-0.00002,0l-0.00002,0l-0.00002,0l-0.00002,0l-0.00002,0l-0.00002,0l-0.00002,0l-0.00002,0l-0.00002,0l-0.00002,0l-0.00002,0l-0.00002,0l-0.00002,0l-0.00002,0l-0.00002,0l-0.00002,0l-0.00002,0l-0.00002,0l-0.00002,0l-0.00003,0l-0.00002,0l-0.00002,0l-0.00002,0l-0.00002,0l-0.00003,0l-0.00002,0l-0.00002,0l-0.00002,0l-0.00003,0l-0.00002,0l-0.00002,0l-0.00002,0l-0.00003,0l-0.00002,0l-0.00002,0l-0.00003,0l-0.00002,0l-0.00002,0l-0.00003,0l-0.00002,0l-0.00003,0l-0.00002,0l-0.00003,0l-0.00002,0l-0.00002,0l-0.00003,0l-0.00002,0l-0.00003,0l-0.00002,0l-0.00003,0l-0.00003,0l-0.00002,0l-0.00003,0l-0.00002,0l-0.00003,0l-0.00002,0l-0.00003,0l-0.00003,0l-0.00002,0l-0.00003,0l-0.00003,0l-0.00002,0l-0.00003,0l-0.00003,0l-0.00003,0l-0.00002,0l-0.00003,0l-0.00003,0l-0.00003,0l-0.00002,0l-0.00003,0l-0.00003,0l-0.00003,0l-0.00003,0l-0.00003,0l-0.00002,0l-0.00003,0l-0.00003,0l-0.00003,0l-0.00003,0l-0.00003,0l-0.00003,0l-0.00003,0l-0.00003,0l-0.00003,0l-0.00003,0l-0.00003,0l-0.00003,0l-0.00003,0l-0.00003,0l-0.00003,0l-0.00003,0l-0.00004,0l-0.00003,0l-0.00003,0l-0.00003,0l-0.00003,0l-0.00003,0l-0.00004,0l-0.00003,0l-0.00003,0l-0.00003,0l-0.00004,0l-0.00003,0l-0.00003,0l-0.00003,0l-0.00004,0l-0.00003,0l-0.00003,0l-0.00004,0l-0.00003,0l-0.00004,0l-0.00003,0l-0.00004,0l-0.00003,0l-0.00003,0l-0.00004,0l-0.00003,0l-0.00004,0l-0.00003,0l-0.00004,0l-0.00004,0l-0.00003,0l-0.00004,0l-0.00003,0l-0.00004,0l-0.00004,0l-0.00003,0l-0.00004,0l-0.00004,0l-0.00003,0l-0.00004,0l-0.00004,0l-0.00003,0l-0.00004,0l-0.00004,0l-0.00004,0l-0.00004,0l-0.00003,0l-0.00004,0l-0.00004,0l-0.00004,0l-0.00004,0l-0.00004,0l-0.00004,0l-0.00004,0l-0.00003,0l-0.00005,0l-0.00003,0l-0.00004,0l-0.00004,0l-0.00005,0l-0.00004,0l-0.00004,0l-0.00004,0l-0.00004,0l-0.00004,0l-0.00004,0l-0.00004,0l-0.00004,0l-0.00005,0l-0.00004,0l-0.00004,0l-0.00004,0l-0.00004,0l-0.00005,0l-0.00004,0l-0.00004,0l-0.00005,0l-0.00004,0l-0.00004,0l-0.00005,0l-0.00004,0c-2.47475,0 -5.25389,1.44527 -5.97738,4.62807l3.49643,8.73903zm0,0c-2.11723,-2.0358 -4.31226,-5.1404 -3.49648,-8.73879l3.49648,8.73879zm-0.37405,-7.4471c0,1.58114 1.28136,2.8625 2.8625,2.8625c1.58115,0 2.86245,-1.28136 2.86245,-2.8625c0,-1.58114 -1.2813,-2.8625 -2.86245,-2.8625c-1.58114,0 -2.8625,1.28136 -2.8625,2.8625z"/>
  <ellipse stroke-width="0" ry="4" rx="4" id="svg_2" cy="8" cx="9" stroke="#000" fill="#fff"/>
 </g>
</svg>